<svg xmlns="http://www.w3.org/2000/svg" xmlns:xlink="http://www.w3.org/1999/xlink" width="2000" zoomAndPan="magnify" viewBox="0 0 1500 1499.999933" height="2000" preserveAspectRatio="xMidYMid meet" version="1.0"><defs><clipPath id="7467f529d6"><path d="M 271 150 L 1229 150 L 1229 1350 L 271 1350 Z M 271 150 " clip-rule="nonzero"/></clipPath></defs><g clip-path="url(#7467f529d6)"><path fill="#2d7a4f" d="M 1155.738281 157.171875 C 1149.847656 161.527344 1142.417969 164.597656 1137.808594 164.597656 C 1133.457031 164.855469 1127.054688 166.390625 1123.46875 168.441406 C 1115.015625 173.304688 1111.6875 173.304688 1115.785156 168.441406 C 1117.578125 166.390625 1118.089844 164.597656 1117.320312 164.597656 C 1114.25 164.597656 1099.394531 172.792969 1090.945312 179.195312 C 1081.980469 185.855469 1080.699219 185.34375 1085.308594 176.890625 C 1089.40625 169.210938 1084.027344 171.769531 1068.664062 185.085938 C 1053.554688 198.148438 1034.089844 220.683594 1018.722656 242.453125 C 1009.757812 255.515625 1008.222656 256.796875 1008.222656 251.160156 C 1008.222656 247.574219 1010.015625 239.636719 1012.066406 233.488281 L 1016.164062 222.222656 L 1004.382812 235.027344 C 987.992188 252.699219 968.527344 279.332031 950.601562 308.015625 C 942.40625 321.332031 923.710938 348.480469 909.113281 368.199219 C 883.246094 403.539062 861.476562 439.652344 851.746094 463.46875 L 846.625 475.761719 L 847.90625 457.832031 L 849.441406 439.90625 L 840.222656 455.273438 C 827.929688 475.761719 817.683594 488.308594 784.136719 523.140625 C 751.609375 557.199219 699.367188 617.128906 674.523438 648.371094 C 656.597656 671.164062 644.304688 693.703125 639.183594 713.164062 C 632.011719 740.054688 629.964844 718.03125 635.597656 675.519531 C 636.878906 667.066406 635.855469 668.347656 630.988281 682.433594 C 621.257812 709.066406 609.21875 733.140625 598.71875 747.226562 C 580.28125 771.554688 567.730469 798.960938 567.730469 814.835938 C 567.730469 819.960938 567.21875 820.726562 565.167969 817.65625 C 563.890625 815.605469 562.609375 805.617188 562.351562 795.886719 C 562.097656 785.898438 561.328125 774.375 560.304688 770.277344 C 558.765625 763.617188 558.253906 764.898438 556.71875 778.214844 C 555.949219 786.667969 551.597656 803.570312 546.988281 815.347656 C 542.632812 827.128906 538.023438 840.191406 536.488281 844.542969 C 535.207031 848.640625 534.179688 875.277344 534.179688 903.449219 C 534.4375 931.363281 533.414062 953.386719 532.390625 952.105469 C 531.109375 950.570312 524.960938 941.351562 518.304688 931.617188 C 502.425781 907.289062 493.207031 898.582031 503.449219 917.789062 C 511.390625 932.132812 517.535156 953.132812 520.351562 975.15625 L 522.144531 987.960938 L 509.339844 970.035156 C 502.425781 960.046875 492.179688 948.007812 487.058594 943.144531 L 477.582031 934.179688 L 484.242188 944.9375 C 490.902344 955.949219 511.390625 998.71875 511.390625 1002.046875 C 511.390625 1003.070312 503.707031 999.996094 494.484375 995.132812 C 485.011719 990.523438 475.023438 986.679688 471.949219 986.679688 C 467.597656 986.9375 468.109375 987.449219 474.511719 990.265625 C 485.011719 994.875 500.375 1008.703125 510.621094 1023.046875 L 518.558594 1034.316406 L 509.851562 1033.289062 C 504.988281 1032.777344 496.792969 1033.035156 491.414062 1034.316406 L 481.9375 1036.105469 L 495.253906 1038.15625 C 509.085938 1039.949219 519.328125 1045.839844 524.195312 1054.804688 C 526.753906 1059.15625 526.5 1061.972656 523.167969 1068.375 C 517.792969 1078.621094 472.460938 1138.804688 444.546875 1172.351562 C 415.863281 1207.4375 331.351562 1290.925781 300.105469 1315.511719 C 286.019531 1326.78125 273.472656 1336.769531 272.449219 1337.539062 C 269.117188 1340.355469 276.289062 1350.34375 281.410156 1350.34375 C 287.046875 1350.34375 314.191406 1331.648438 345.179688 1306.550781 C 401.265625 1261.21875 458.886719 1200.011719 511.902344 1130.097656 C 531.109375 1104.484375 542.121094 1091.9375 544.683594 1092.707031 C 576.4375 1101.667969 593.597656 1115.753906 598.464844 1136.242188 L 600.511719 1144.179688 L 600.769531 1134.449219 C 601.023438 1129.070312 599.230469 1121.132812 596.925781 1117.035156 C 593.085938 1109.609375 593.339844 1109.351562 597.949219 1111.914062 C 600.769531 1113.449219 606.660156 1118.828125 611.011719 1124.207031 L 619.207031 1133.9375 L 615.109375 1123.695312 C 612.804688 1118.316406 609.21875 1111.65625 606.914062 1109.09375 C 604.609375 1106.535156 603.328125 1103.972656 604.097656 1103.207031 C 606.402344 1100.644531 647.121094 1117.804688 655.574219 1124.460938 C 669.660156 1136.242188 658.390625 1122.667969 637.132812 1102.691406 L 617.671875 1084.511719 L 631.757812 1088.09375 C 650.195312 1092.707031 656.34375 1092.707031 692.195312 1086.304688 C 709.097656 1083.484375 731.636719 1080.925781 742.648438 1080.667969 C 761.34375 1080.15625 762.109375 1079.898438 754.683594 1076.828125 C 750.332031 1075.289062 734.453125 1070.425781 719.34375 1066.328125 C 673.5 1053.777344 672.476562 1056.082031 731.890625 1036.875 C 760.832031 1027.398438 794.636719 1017.667969 807.441406 1014.851562 C 829.464844 1010.242188 829.722656 1009.984375 817.429688 1009.730469 C 763.648438 1008.191406 747.769531 1006.65625 757.5 1003.582031 C 797.707031 991.289062 813.074219 985.398438 828.953125 976.4375 C 849.953125 964.65625 885.296875 942.628906 885.296875 941.605469 C 885.296875 941.09375 878.125 943.398438 869.417969 946.726562 C 853.28125 952.875 831.515625 957.484375 831.515625 955.179688 C 831.515625 954.410156 835.867188 952.363281 841.246094 950.570312 C 863.78125 943.398438 901.429688 909.59375 934.210938 867.59375 C 943.171875 856.324219 957.003906 838.652344 965.199219 828.410156 C 973.394531 818.421875 979.539062 809.972656 979.027344 809.972656 C 978.257812 809.972656 972.367188 813.300781 965.453125 817.398438 C 950.089844 826.875 927.039062 834.554688 907.0625 836.863281 C 885.550781 839.421875 890.929688 835.582031 926.269531 823.800781 C 954.441406 814.324219 956.492188 813.042969 974.929688 795.628906 C 991.320312 780.007812 998.234375 770.277344 1020.773438 731.347656 C 1035.371094 706.25 1060.210938 665.53125 1076.089844 640.945312 C 1091.710938 616.359375 1114.503906 577.175781 1126.796875 553.871094 C 1138.835938 530.566406 1157.785156 495.734375 1169.054688 476.273438 C 1180.578125 457.066406 1189.03125 441.1875 1188.261719 441.1875 C 1187.75 441.1875 1184.164062 443.492188 1180.578125 446.308594 C 1170.589844 453.992188 1169.054688 452.457031 1176.226562 441.699219 C 1193.382812 416.601562 1210.542969 376.394531 1221.042969 336.699219 C 1229.238281 304.683594 1229.75 301.867188 1225.90625 304.171875 C 1224.371094 305.199219 1223.347656 297.515625 1223.347656 283.171875 C 1223.089844 262.683594 1222.835938 261.40625 1219.761719 268.320312 C 1216.6875 275.492188 1216.433594 274.976562 1213.871094 253.722656 C 1211.824219 235.539062 1209.003906 227.34375 1198.761719 207.113281 C 1190.054688 189.695312 1185.699219 183.550781 1183.394531 185.34375 C 1178.273438 189.695312 1169.566406 171.769531 1169.566406 156.660156 C 1169.566406 147.695312 1168.285156 147.695312 1155.738281 157.171875 Z M 1070.96875 340.539062 C 1041.261719 392.273438 979.796875 477.042969 900.917969 575.382812 C 787.722656 715.980469 728.5625 796.910156 622.28125 955.691406 C 561.585938 1045.839844 549.035156 1063.511719 543.914062 1063.511719 C 542.890625 1063.511719 544.425781 1058.644531 547.753906 1052.753906 C 555.695312 1038.15625 672.21875 863.496094 693.21875 834.558594 C 781.574219 713.675781 806.929688 680.640625 875.050781 597.410156 C 959.820312 493.945312 1016.417969 419.675781 1053.039062 363.589844 C 1076.601562 327.734375 1083.261719 319.027344 1070.96875 340.539062 Z M 1070.96875 340.539062 " fill-opacity="1" fill-rule="nonzero"/></g></svg>